<svg width="42" height="13" viewBox="0 0 42 13" fill="none" xmlns="http://www.w3.org/2000/svg">
<path d="M3.248 6.128L2.752 7.728H5.904L5.408 6.128C5.216 5.54133 5.03467 4.96 4.864 4.384C4.69333 3.79733 4.52267 3.2 4.352 2.592H4.288C4.128 3.2 3.96267 3.79733 3.792 4.384C3.62133 4.96 3.44 5.54133 3.248 6.128ZM0.048 12L3.6 1.504H5.104L8.656 12H7.232L6.24 8.8H2.416L1.408 12H0.048ZM13.7751 12.192C13.4125 12.192 13.0338 12.1067 12.6391 11.936C12.2551 11.7547 11.8925 11.5093 11.5511 11.2H11.5031L11.3911 12H10.3351V0.608H11.6471V3.712L11.6151 5.12C11.9671 4.81067 12.3511 4.55467 12.7671 4.352C13.1938 4.13867 13.6205 4.032 14.0471 4.032C15.0605 4.032 15.8285 4.38933 16.3511 5.104C16.8738 5.81867 17.1351 6.77867 17.1351 7.984C17.1351 8.86933 16.9751 9.62667 16.6551 10.256C16.3458 10.8853 15.9351 11.3653 15.4231 11.696C14.9218 12.0267 14.3725 12.192 13.7751 12.192ZM13.5511 11.088C14.1911 11.088 14.7191 10.816 15.1351 10.272C15.5618 9.71733 15.7751 8.96 15.7751 8C15.7751 7.14667 15.6151 6.45867 15.2951 5.936C14.9858 5.40267 14.4631 5.136 13.7271 5.136C13.3965 5.136 13.0605 5.22667 12.7191 5.408C12.3778 5.58933 12.0205 5.85067 11.6471 6.192V10.272C11.9885 10.5707 12.3245 10.784 12.6551 10.912C12.9965 11.0293 13.2951 11.088 13.5511 11.088ZM22.5229 12.192C21.8935 12.192 21.3015 12.032 20.7469 11.712C20.2029 11.392 19.7602 10.928 19.4189 10.32C19.0882 9.712 18.9229 8.98133 18.9229 8.128C18.9229 7.25333 19.0882 6.512 19.4189 5.904C19.7602 5.296 20.2029 4.832 20.7469 4.512C21.3015 4.192 21.8935 4.032 22.5229 4.032C23.1629 4.032 23.7549 4.192 24.2989 4.512C24.8429 4.832 25.2802 5.296 25.6109 5.904C25.9522 6.512 26.1229 7.25333 26.1229 8.128C26.1229 8.98133 25.9522 9.712 25.6109 10.32C25.2802 10.928 24.8429 11.392 24.2989 11.712C23.7549 12.032 23.1629 12.192 22.5229 12.192ZM22.5229 11.104C23.1949 11.104 23.7335 10.832 24.1389 10.288C24.5549 9.73333 24.7629 9.01333 24.7629 8.128C24.7629 7.232 24.5549 6.50667 24.1389 5.952C23.7335 5.39733 23.1949 5.12 22.5229 5.12C21.8615 5.12 21.3229 5.39733 20.9069 5.952C20.4909 6.50667 20.2829 7.232 20.2829 8.128C20.2829 9.01333 20.4909 9.73333 20.9069 10.288C21.3229 10.832 21.8615 11.104 22.5229 11.104ZM30.7627 12.192C29.9414 12.192 29.3387 11.936 28.9547 11.424C28.5707 10.9013 28.3787 10.144 28.3787 9.152V4.224H29.7067V8.976C29.7067 9.70133 29.8187 10.2293 30.0427 10.56C30.2774 10.8907 30.6507 11.056 31.1627 11.056C31.5681 11.056 31.9254 10.9547 32.2347 10.752C32.5547 10.5387 32.8961 10.2027 33.2587 9.744V4.224H34.5707V12H33.4827L33.3707 10.784H33.3227C32.9601 11.2107 32.5761 11.552 32.1707 11.808C31.7654 12.064 31.2961 12.192 30.7627 12.192ZM39.9619 12.192C39.1299 12.192 38.5485 11.952 38.2179 11.472C37.8979 10.992 37.7379 10.368 37.7379 9.6V5.296H36.5859V4.304L37.8019 4.224L37.9619 2.048H39.0659V4.224H41.1619V5.296H39.0659V9.616C39.0659 10.096 39.1512 10.4693 39.3219 10.736C39.5032 10.992 39.8179 11.12 40.2659 11.12C40.4045 11.12 40.5539 11.0987 40.7139 11.056C40.8739 11.0027 41.0179 10.9547 41.1459 10.912L41.4019 11.904C41.1885 11.9787 40.9539 12.0427 40.6979 12.096C40.4525 12.16 40.2072 12.192 39.9619 12.192Z" fill="black"/>
</svg>
