<svg width="40" height="12" viewBox="0 0 40 12" fill="none" xmlns="http://www.w3.org/2000/svg">
<path d="M0.44 11V0.504H1.768V4.904H6.648V0.504H7.992V11H6.648V6.056H1.768V11H0.44ZM14.0935 11.192C13.4642 11.192 12.8722 11.032 12.3175 10.712C11.7735 10.392 11.3308 9.928 10.9895 9.32C10.6588 8.712 10.4935 7.98133 10.4935 7.128C10.4935 6.25333 10.6588 5.512 10.9895 4.904C11.3308 4.296 11.7735 3.832 12.3175 3.512C12.8722 3.192 13.4642 3.032 14.0935 3.032C14.7335 3.032 15.3255 3.192 15.8695 3.512C16.4135 3.832 16.8508 4.296 17.1815 4.904C17.5228 5.512 17.6935 6.25333 17.6935 7.128C17.6935 7.98133 17.5228 8.712 17.1815 9.32C16.8508 9.928 16.4135 10.392 15.8695 10.712C15.3255 11.032 14.7335 11.192 14.0935 11.192ZM14.0935 10.104C14.7655 10.104 15.3042 9.832 15.7095 9.288C16.1255 8.73333 16.3335 8.01333 16.3335 7.128C16.3335 6.232 16.1255 5.50667 15.7095 4.952C15.3042 4.39733 14.7655 4.12 14.0935 4.12C13.4322 4.12 12.8935 4.39733 12.4775 4.952C12.0615 5.50667 11.8535 6.232 11.8535 7.128C11.8535 8.01333 12.0615 8.73333 12.4775 9.288C12.8935 9.832 13.4322 10.104 14.0935 10.104ZM20.0614 11V3.224H21.1494L21.2614 4.344H21.3094C21.6507 3.97067 22.024 3.66133 22.4294 3.416C22.8347 3.16 23.2667 3.032 23.7254 3.032C24.3227 3.032 24.7867 3.16533 25.1174 3.432C25.4587 3.688 25.7094 4.05067 25.8694 4.52C26.2747 4.08267 26.6854 3.72533 27.1014 3.448C27.5174 3.17067 27.96 3.032 28.4294 3.032C29.2294 3.032 29.8214 3.29333 30.2054 3.816C30.6 4.328 30.7974 5.08 30.7974 6.072V11H29.4854V6.248C29.4854 5.52267 29.368 4.99467 29.1334 4.664C28.8987 4.33333 28.536 4.168 28.0454 4.168C27.4694 4.168 26.8187 4.568 26.0934 5.368V11H24.7814V6.248C24.7814 5.52267 24.664 4.99467 24.4294 4.664C24.1947 4.33333 23.8267 4.168 23.3254 4.168C22.7494 4.168 22.0987 4.568 21.3734 5.368V11H20.0614ZM36.799 11.192C36.1057 11.192 35.4763 11.032 34.911 10.712C34.3457 10.3813 33.8977 9.912 33.567 9.304C33.2363 8.696 33.071 7.97067 33.071 7.128C33.071 6.27467 33.2363 5.544 33.567 4.936C33.9083 4.328 34.3457 3.85867 34.879 3.528C35.4123 3.19733 35.9723 3.032 36.559 3.032C37.551 3.032 38.3137 3.36267 38.847 4.024C39.391 4.68533 39.663 5.57067 39.663 6.68C39.663 6.81867 39.6577 6.95733 39.647 7.096C39.647 7.224 39.6363 7.336 39.615 7.432H34.367C34.4203 8.25333 34.6763 8.90933 35.135 9.4C35.6043 9.89067 36.2123 10.136 36.959 10.136C37.3323 10.136 37.6737 10.0827 37.983 9.976C38.303 9.85867 38.607 9.70933 38.895 9.528L39.359 10.392C39.0283 10.6053 38.6497 10.792 38.223 10.952C37.807 11.112 37.3323 11.192 36.799 11.192ZM34.351 6.488H38.511C38.511 5.69867 38.3403 5.10133 37.999 4.696C37.6683 4.28 37.199 4.072 36.591 4.072C36.047 4.072 35.5563 4.28533 35.119 4.712C34.6923 5.128 34.4363 5.72 34.351 6.488Z" fill="black"/>
</svg>
