<svg width="68" height="13" viewBox="0 0 68 13" fill="none" xmlns="http://www.w3.org/2000/svg">
<path d="M0.44 12V1.504H3.432C4.22133 1.504 4.90933 1.6 5.496 1.792C6.08267 1.984 6.54133 2.30933 6.872 2.768C7.20267 3.216 7.368 3.824 7.368 4.592C7.368 5.69067 7.01067 6.50667 6.296 7.04C5.58133 7.57333 4.648 7.84 3.496 7.84H1.768V12H0.44ZM1.768 6.752H3.336C4.25333 6.752 4.93067 6.58133 5.368 6.24C5.816 5.888 6.04 5.33867 6.04 4.592C6.04 3.83467 5.80533 3.312 5.336 3.024C4.87733 2.72533 4.18933 2.576 3.272 2.576H1.768V6.752ZM12.3279 12.192C11.6985 12.192 11.1065 12.032 10.5519 11.712C10.0079 11.392 9.56521 10.928 9.22387 10.32C8.89321 9.712 8.72787 8.98133 8.72787 8.128C8.72787 7.25333 8.89321 6.512 9.22387 5.904C9.56521 5.296 10.0079 4.832 10.5519 4.512C11.1065 4.192 11.6985 4.032 12.3279 4.032C12.9679 4.032 13.5599 4.192 14.1039 4.512C14.6479 4.832 15.0852 5.296 15.4159 5.904C15.7572 6.512 15.9279 7.25333 15.9279 8.128C15.9279 8.98133 15.7572 9.712 15.4159 10.32C15.0852 10.928 14.6479 11.392 14.1039 11.712C13.5599 12.032 12.9679 12.192 12.3279 12.192ZM12.3279 11.104C12.9999 11.104 13.5385 10.832 13.9439 10.288C14.3599 9.73333 14.5679 9.01333 14.5679 8.128C14.5679 7.232 14.3599 6.50667 13.9439 5.952C13.5385 5.39733 12.9999 5.12 12.3279 5.12C11.6665 5.12 11.1279 5.39733 10.7119 5.952C10.2959 6.50667 10.0879 7.232 10.0879 8.128C10.0879 9.01333 10.2959 9.73333 10.7119 10.288C11.1279 10.832 11.6665 11.104 12.3279 11.104ZM18.2957 12V4.224H19.3837L19.4957 5.632H19.5437C19.8104 5.14133 20.1357 4.752 20.5197 4.464C20.9037 4.176 21.3144 4.032 21.7517 4.032C22.0611 4.032 22.3384 4.08533 22.5837 4.192L22.3277 5.344C22.1997 5.30133 22.0824 5.26933 21.9757 5.248C21.8691 5.22667 21.7357 5.216 21.5757 5.216C21.2451 5.216 20.8984 5.34933 20.5357 5.616C20.1837 5.88267 19.8744 6.34667 19.6077 7.008V12H18.2957ZM26.6106 12.192C25.7786 12.192 25.1973 11.952 24.8666 11.472C24.5466 10.992 24.3866 10.368 24.3866 9.6V5.296H23.2346V4.304L24.4506 4.224L24.6106 2.048H25.7146V4.224H27.8106V5.296H25.7146V9.616C25.7146 10.096 25.8 10.4693 25.9706 10.736C26.152 10.992 26.4666 11.12 26.9146 11.12C27.0533 11.12 27.2026 11.0987 27.3626 11.056C27.5226 11.0027 27.6666 10.9547 27.7946 10.912L28.0506 11.904C27.8373 11.9787 27.6026 12.0427 27.3466 12.096C27.1013 12.16 26.856 12.192 26.6106 12.192ZM32.6941 12.192C32.0648 12.192 31.4728 12.032 30.9181 11.712C30.3741 11.392 29.9315 10.928 29.5901 10.32C29.2595 9.712 29.0941 8.98133 29.0941 8.128C29.0941 7.25333 29.2595 6.512 29.5901 5.904C29.9315 5.296 30.3741 4.832 30.9181 4.512C31.4728 4.192 32.0648 4.032 32.6941 4.032C33.3341 4.032 33.9261 4.192 34.4701 4.512C35.0141 4.832 35.4515 5.296 35.7821 5.904C36.1235 6.512 36.2941 7.25333 36.2941 8.128C36.2941 8.98133 36.1235 9.712 35.7821 10.32C35.4515 10.928 35.0141 11.392 34.4701 11.712C33.9261 12.032 33.3341 12.192 32.6941 12.192ZM32.6941 11.104C33.3661 11.104 33.9048 10.832 34.3101 10.288C34.7261 9.73333 34.9341 9.01333 34.9341 8.128C34.9341 7.232 34.7261 6.50667 34.3101 5.952C33.9048 5.39733 33.3661 5.12 32.6941 5.12C32.0328 5.12 31.4941 5.39733 31.0781 5.952C30.6621 6.50667 30.4541 7.232 30.4541 8.128C30.4541 9.01333 30.6621 9.73333 31.0781 10.288C31.4941 10.832 32.0328 11.104 32.6941 11.104ZM38.886 12V5.296H37.83V4.304L38.886 4.224V2.992C38.886 2.20267 39.0673 1.57867 39.43 1.12C39.8033 0.650666 40.3793 0.415999 41.158 0.415999C41.4033 0.415999 41.638 0.442666 41.862 0.495999C42.086 0.538666 42.2833 0.597333 42.454 0.672L42.166 1.68C41.878 1.552 41.5847 1.488 41.286 1.488C40.5607 1.488 40.198 1.98933 40.198 2.992V4.224H41.846V5.296H40.198V12H38.886ZM46.5216 12.192C45.8923 12.192 45.3003 12.032 44.7456 11.712C44.2016 11.392 43.759 10.928 43.4176 10.32C43.087 9.712 42.9216 8.98133 42.9216 8.128C42.9216 7.25333 43.087 6.512 43.4176 5.904C43.759 5.296 44.2016 4.832 44.7456 4.512C45.3003 4.192 45.8923 4.032 46.5216 4.032C47.1616 4.032 47.7536 4.192 48.2976 4.512C48.8416 4.832 49.279 5.296 49.6096 5.904C49.951 6.512 50.1216 7.25333 50.1216 8.128C50.1216 8.98133 49.951 9.712 49.6096 10.32C49.279 10.928 48.8416 11.392 48.2976 11.712C47.7536 12.032 47.1616 12.192 46.5216 12.192ZM46.5216 11.104C47.1936 11.104 47.7323 10.832 48.1376 10.288C48.5536 9.73333 48.7616 9.01333 48.7616 8.128C48.7616 7.232 48.5536 6.50667 48.1376 5.952C47.7323 5.39733 47.1936 5.12 46.5216 5.12C45.8603 5.12 45.3216 5.39733 44.9056 5.952C44.4896 6.50667 44.2816 7.232 44.2816 8.128C44.2816 9.01333 44.4896 9.73333 44.9056 10.288C45.3216 10.832 45.8603 11.104 46.5216 11.104ZM53.8815 12.192C53.3908 12.192 53.0335 12.0427 52.8095 11.744C52.5962 11.4347 52.4895 10.9973 52.4895 10.432V0.608H53.8015V10.528C53.8015 10.7307 53.8388 10.88 53.9135 10.976C53.9882 11.0613 54.0735 11.104 54.1695 11.104C54.2122 11.104 54.2495 11.104 54.2815 11.104C54.3242 11.0933 54.3828 11.0827 54.4575 11.072L54.6335 12.064C54.5482 12.1067 54.4468 12.1387 54.3295 12.16C54.2122 12.1813 54.0628 12.192 53.8815 12.192ZM56.8876 12V4.224H58.1996V12H56.8876ZM57.5596 2.624C57.3036 2.624 57.0903 2.54933 56.9196 2.4C56.7596 2.24 56.6796 2.02667 56.6796 1.76C56.6796 1.504 56.7596 1.296 56.9196 1.136C57.0903 0.976 57.3036 0.896 57.5596 0.896C57.8156 0.896 58.0236 0.976 58.1836 1.136C58.3543 1.296 58.4396 1.504 58.4396 1.76C58.4396 2.02667 58.3543 2.24 58.1836 2.4C58.0236 2.54933 57.8156 2.624 57.5596 2.624ZM64.1691 12.192C63.5398 12.192 62.9478 12.032 62.3931 11.712C61.8491 11.392 61.4065 10.928 61.0651 10.32C60.7345 9.712 60.5691 8.98133 60.5691 8.128C60.5691 7.25333 60.7345 6.512 61.0651 5.904C61.4065 5.296 61.8491 4.832 62.3931 4.512C62.9478 4.192 63.5398 4.032 64.1691 4.032C64.8091 4.032 65.4011 4.192 65.9451 4.512C66.4891 4.832 66.9265 5.296 67.2571 5.904C67.5985 6.512 67.7691 7.25333 67.7691 8.128C67.7691 8.98133 67.5985 9.712 67.2571 10.32C66.9265 10.928 66.4891 11.392 65.9451 11.712C65.4011 12.032 64.8091 12.192 64.1691 12.192ZM64.1691 11.104C64.8411 11.104 65.3798 10.832 65.7851 10.288C66.2011 9.73333 66.4091 9.01333 66.4091 8.128C66.4091 7.232 66.2011 6.50667 65.7851 5.952C65.3798 5.39733 64.8411 5.12 64.1691 5.12C63.5078 5.12 62.9691 5.39733 62.5531 5.952C62.1371 6.50667 61.9291 7.232 61.9291 8.128C61.9291 9.01333 62.1371 9.73333 62.5531 10.288C62.9691 10.832 63.5078 11.104 64.1691 11.104Z" fill="black"/>
</svg>
