<svg width="20" height="20" viewBox="0 0 20 20" fill="none" xmlns="http://www.w3.org/2000/svg">
<path d="M10 5.74074C9.1576 5.74074 8.33411 5.99054 7.63368 6.45855C6.93325 6.92657 6.38733 7.59177 6.06496 8.37005C5.74258 9.14833 5.65824 10.0047 5.82258 10.8309C5.98693 11.6572 6.39258 12.4161 6.98825 13.0118C7.58392 13.6074 8.34284 14.0131 9.16906 14.1774C9.99528 14.3418 10.8517 14.2574 11.6299 13.935C12.4082 13.6127 13.0734 13.0667 13.5414 12.3663C14.0095 11.6659 14.2593 10.8424 14.2593 10C14.2593 8.87037 13.8105 7.78702 13.0118 6.98825C12.213 6.18948 11.1296 5.74074 10 5.74074V5.74074ZM10 12.037C9.59711 12.037 9.20327 11.9176 8.86828 11.6937C8.53329 11.4699 8.2722 11.1518 8.11802 10.7795C7.96384 10.4073 7.9235 9.99774 8.0021 9.60259C8.0807 9.20745 8.27471 8.84448 8.5596 8.5596C8.84448 8.27471 9.20745 8.0807 9.60259 8.0021C9.99774 7.9235 10.4073 7.96384 10.7795 8.11802C11.1518 8.2722 11.4699 8.53329 11.6937 8.86828C11.9176 9.20327 12.037 9.59711 12.037 10C12.0346 10.5395 11.8192 11.0562 11.4377 11.4377C11.0562 11.8192 10.5395 12.0346 10 12.037ZM14.4444 0H5.55556C4.08213 0 2.66905 0.585316 1.62718 1.62718C0.585316 2.66905 0 4.08213 0 5.55556V14.4444C0 15.9179 0.585316 17.3309 1.62718 18.3728C2.66905 19.4147 4.08213 20 5.55556 20H14.4444C15.9179 20 17.3309 19.4147 18.3728 18.3728C19.4147 17.3309 20 15.9179 20 14.4444V5.55556C20 4.08213 19.4147 2.66905 18.3728 1.62718C17.3309 0.585316 15.9179 0 14.4444 0V0ZM17.7778 14.4444C17.7778 15.3285 17.4266 16.1763 16.8015 16.8015C16.1763 17.4266 15.3285 17.7778 14.4444 17.7778H5.55556C4.6715 17.7778 3.82365 17.4266 3.19853 16.8015C2.57341 16.1763 2.22222 15.3285 2.22222 14.4444V5.55556C2.22222 4.6715 2.57341 3.82365 3.19853 3.19853C3.82365 2.57341 4.6715 2.22222 5.55556 2.22222H14.4444C15.3285 2.22222 16.1763 2.57341 16.8015 3.19853C17.4266 3.82365 17.7778 4.6715 17.7778 5.55556V14.4444ZM16.2963 5.18519C16.2963 5.47819 16.2094 5.76462 16.0466 6.00825C15.8838 6.25188 15.6525 6.44177 15.3818 6.5539C15.111 6.66603 14.8132 6.69536 14.5258 6.6382C14.2384 6.58104 13.9744 6.43994 13.7672 6.23275C13.5601 6.02556 13.419 5.76159 13.3618 5.47421C13.3046 5.18683 13.334 4.88895 13.4461 4.61825C13.5582 4.34754 13.7481 4.11617 13.9917 3.95338C14.2354 3.79059 14.5218 3.7037 14.8148 3.7037C15.2077 3.7037 15.5845 3.85979 15.8624 4.13762C16.1402 4.41545 16.2963 4.79227 16.2963 5.18519Z" fill="black"/>
</svg>
